<?xml version="1.0" encoding="utf-8"?>
<!-- Generator: Adobe Illustrator 16.0.0, SVG Export Plug-In . SVG Version: 6.00 Build 0)  -->
<!DOCTYPE svg PUBLIC "-//W3C//DTD SVG 1.1//EN" "http://www.w3.org/Graphics/SVG/1.1/DTD/svg11.dtd">
<svg version="1.1" id="Layer_1" xmlns="http://www.w3.org/2000/svg" xmlns:xlink="http://www.w3.org/1999/xlink" x="0px" y="0px"
	 width="1024px" height="276.742px" viewBox="0 0 1024 276.742" enable-background="new 0 0 1024 276.742" xml:space="preserve">
<path fill="#FAFAFA" d="M140.803,258.904c-15.404,2.705-31.079,3.516-47.294,5.676L44.051,119.724v151.073
	C28.647,272.418,14.594,274.58,0,276.742V0h41.08l56.212,157.021V0h43.511V258.904L140.803,258.904z M225.934,101.346
	c16.757,0,42.431-0.811,57.835-0.811v43.24c-19.189,0-41.619,0-57.835,0.811v64.322c25.405-1.621,50.809-3.785,76.482-4.596v41.617
	l-119.724,9.461V0h119.724v43.241h-76.482V101.346z M463.218,43.242h-44.861V242.15c-14.595,0-29.188,0-43.239,0.539V43.242h-44.862
	V0H463.22L463.218,43.242z M533.484,98.374h59.187v43.239h-59.187v98.104h-42.434V0h120.809v43.241h-78.375V98.374z
	 M682.125,201.881c24.594,0.539,49.456,2.434,73.51,3.783v42.701c-38.646-2.434-77.293-4.863-116.75-5.676V0h43.24V201.881
	L682.125,201.881z M792.119,251.338c13.783,0.812,28.377,1.623,42.43,3.242V0h-42.43V251.338z M1024,0l-54.863,131.615L1024,276.742
	c-16.217-2.162-32.432-5.135-48.648-7.838l-31.077-79.994l-31.617,73.51c-15.679-2.705-30.812-3.516-46.484-5.678l55.672-126.75
	L871.576,0h46.481l28.377,72.699L976.705,0H1024L1024,0z"/>
</svg>
